<svg width="32" height="32" viewBox="0 0 32 32" fill="none" xmlns="http://www.w3.org/2000/svg">
<g clip-path="url(#clip0_0_345)">
<rect width="32" height="32" rx="16" fill="#FCFCFC"/>
<path d="M31.5 16C31.5 7.43959 24.5604 0.5 16 0.5C7.43959 0.5 0.5 7.43959 0.5 16C0.5 24.5604 7.43959 31.5 16 31.5C24.5604 31.5 31.5 24.5604 31.5 16Z" stroke="#85EFAC"/>
<path fill-rule="evenodd" clip-rule="evenodd" d="M21.3851 10.4966C21.9392 9.8808 22.8877 9.83088 23.5034 10.3851C24.1192 10.9393 24.1691 11.8877 23.6149 12.5035L14.6149 22.5035C14.04 23.1422 13.047 23.1684 12.4393 22.5607L8.43934 18.5607C7.85355 17.9749 7.85355 17.0251 8.43934 16.4394C9.02513 15.8536 9.97487 15.8536 10.5607 16.4394L13.4427 19.3214L21.3851 10.4966Z" fill="#16A249"/>
</g>
<rect x="0.5" y="0.5" width="31" height="31" rx="15.5" stroke="#85EFAC"/>
<defs>
<clipPath id="clip0_0_345">
<rect width="32" height="32" rx="16" fill="white"/>
</clipPath>
</defs>
</svg>
