<svg width="144" height="28" viewBox="0 0 144 28" fill="none" xmlns="http://www.w3.org/2000/svg">
<g clip-path="url(#clip0_0_504)">
<path d="M14.9392 24.3051C14.3595 23.964 13.6405 23.964 13.0608 24.3051L7.50396 27.5759C6.13311 28.3827 4.45007 27.1994 4.74538 25.6364L6.03903 18.7892C6.15438 18.1787 5.95584 17.5511 5.5104 17.118L0.563041 12.3076C-0.550475 11.225 0.0834988 9.33496 1.62466 9.14277L8.14959 8.32905C8.79689 8.24833 9.35397 7.83295 9.61604 7.23559L12.3044 1.1077C12.9524 -0.369233 15.0476 -0.369234 15.6956 1.1077L18.384 7.23559C18.646 7.83295 19.2031 8.24833 19.8504 8.32905L26.3753 9.14277C27.9164 9.33496 28.5505 11.225 27.437 12.3076L22.4896 17.118C22.0442 17.5511 21.8456 18.1787 21.961 18.7892L23.2547 25.6364C23.5499 27.1994 21.8669 28.3827 20.496 27.5759L14.9392 24.3051Z" fill="#FB923C"/>
<path d="M15.5262 23.3078C14.5843 22.7534 13.4157 22.7534 12.4738 23.3078L6.91696 26.5785C6.40289 26.8811 5.77175 26.4374 5.8825 25.8512L7.17614 19.004C7.36357 18.012 7.04096 16.9921 6.31711 16.2883L1.36976 11.4779C0.952189 11.0719 1.18993 10.3632 1.76786 10.2911L8.29281 9.47738C9.34468 9.34621 10.2499 8.67121 10.6758 7.7005L13.3642 1.57261C13.6071 1.01876 14.3929 1.01876 14.6358 1.57261L17.3243 7.7005C17.7501 8.67121 18.6553 9.34621 19.7072 9.47738L26.2322 10.2911C26.8101 10.3632 27.0478 11.0719 26.6302 11.4779L21.6829 16.2883C20.959 16.9921 20.6364 18.012 20.8238 19.004L22.1175 25.8513C22.2282 26.4374 21.5971 26.8811 21.083 26.5785L15.5262 23.3078Z" stroke="#0D0D0D" stroke-opacity="0.18" stroke-width="2"/>
</g>
<g clip-path="url(#clip1_0_504)">
<path d="M43.9392 24.3051C43.3595 23.964 42.6405 23.964 42.0608 24.3051L36.504 27.5759C35.1331 28.3827 33.4501 27.1994 33.7454 25.6364L35.039 18.7892C35.1544 18.1787 34.9558 17.5511 34.5104 17.118L29.563 12.3076C28.4495 11.225 29.0835 9.33496 30.6247 9.14277L37.1496 8.32905C37.7969 8.24833 38.354 7.83295 38.616 7.23559L41.3044 1.1077C41.9524 -0.369233 44.0476 -0.369234 44.6956 1.1077L47.384 7.23559C47.646 7.83295 48.2031 8.24833 48.8504 8.32905L55.3753 9.14277C56.9164 9.33496 57.5505 11.225 56.437 12.3076L51.4896 17.118C51.0442 17.5511 50.8456 18.1787 50.961 18.7892L52.2547 25.6364C52.5499 27.1994 50.8669 28.3827 49.496 27.5759L43.9392 24.3051Z" fill="#FB923C"/>
<path d="M44.5262 23.3078C43.5843 22.7534 42.4157 22.7534 41.4738 23.3078L35.917 26.5785C35.4029 26.8811 34.7718 26.4374 34.8825 25.8512L36.1761 19.004C36.3636 18.012 36.041 16.9921 35.3171 16.2883L30.3698 11.4779C29.9522 11.0719 30.1899 10.3632 30.7679 10.2911L37.2928 9.47738C38.3447 9.34621 39.2499 8.67121 39.6758 7.7005L42.3642 1.57261C42.6071 1.01876 43.3929 1.01876 43.6358 1.57261L46.3243 7.7005C46.7501 8.67121 47.6553 9.34621 48.7072 9.47738L55.2322 10.2911C55.8101 10.3632 56.0478 11.0719 55.6302 11.4779L50.6829 16.2883C49.959 16.9921 49.6364 18.012 49.8238 19.004L51.1175 25.8513C51.2282 26.4374 50.5971 26.8811 50.083 26.5785L44.5262 23.3078Z" stroke="#0D0D0D" stroke-opacity="0.18" stroke-width="2"/>
</g>
<g clip-path="url(#clip2_0_504)">
<path d="M72.9392 24.3051C72.3595 23.964 71.6405 23.964 71.0608 24.3051L65.504 27.5759C64.1331 28.3827 62.4501 27.1994 62.7454 25.6364L64.039 18.7892C64.1544 18.1787 63.9558 17.5511 63.5104 17.118L58.563 12.3076C57.4495 11.225 58.0835 9.33496 59.6247 9.14277L66.1496 8.32905C66.7969 8.24833 67.354 7.83295 67.616 7.23559L70.3044 1.1077C70.9524 -0.369233 73.0476 -0.369234 73.6956 1.1077L76.384 7.23559C76.646 7.83295 77.2031 8.24833 77.8504 8.32905L84.3753 9.14277C85.9164 9.33496 86.5505 11.225 85.437 12.3076L80.4896 17.118C80.0442 17.5511 79.8456 18.1787 79.961 18.7892L81.2547 25.6364C81.5499 27.1994 79.8669 28.3827 78.496 27.5759L72.9392 24.3051Z" fill="#FB923C"/>
<path d="M73.5262 23.3078C72.5843 22.7534 71.4157 22.7534 70.4738 23.3078L64.917 26.5785C64.4029 26.8811 63.7718 26.4374 63.8825 25.8512L65.1761 19.004C65.3636 18.012 65.041 16.9921 64.3171 16.2883L59.3698 11.4779C58.9522 11.0719 59.1899 10.3632 59.7679 10.2911L66.2928 9.47738C67.3447 9.34621 68.2499 8.67121 68.6758 7.7005L71.3642 1.57261C71.6071 1.01876 72.3929 1.01876 72.6358 1.57261L75.3243 7.7005C75.7501 8.67121 76.6553 9.34621 77.7072 9.47738L84.2322 10.2911C84.8101 10.3632 85.0478 11.0719 84.6302 11.4779L79.6829 16.2883C78.959 16.9921 78.6364 18.012 78.8238 19.004L80.1175 25.8513C80.2282 26.4374 79.5971 26.8811 79.083 26.5785L73.5262 23.3078Z" stroke="#0D0D0D" stroke-opacity="0.18" stroke-width="2"/>
</g>
<g clip-path="url(#clip3_0_504)">
<path d="M101.939 24.3051C101.36 23.964 100.64 23.964 100.061 24.3051L94.504 27.5759C93.1331 28.3827 91.4501 27.1994 91.7454 25.6364L93.039 18.7892C93.1544 18.1787 92.9558 17.5511 92.5104 17.118L87.563 12.3076C86.4495 11.225 87.0835 9.33496 88.6247 9.14277L95.1496 8.32905C95.7969 8.24833 96.354 7.83295 96.616 7.23559L99.3044 1.1077C99.9524 -0.369233 102.048 -0.369234 102.696 1.1077L105.384 7.23559C105.646 7.83295 106.203 8.24833 106.85 8.32905L113.375 9.14277C114.916 9.33496 115.55 11.225 114.437 12.3076L109.49 17.118C109.044 17.5511 108.846 18.1787 108.961 18.7892L110.255 25.6364C110.55 27.1994 108.867 28.3827 107.496 27.5759L101.939 24.3051Z" fill="#FB923C"/>
<path d="M102.526 23.3078C101.584 22.7534 100.416 22.7534 99.4738 23.3078L93.917 26.5785C93.4029 26.8811 92.7717 26.4374 92.8825 25.8512L94.1761 19.004C94.3636 18.012 94.041 16.9921 93.3171 16.2883L88.3698 11.4779C87.9522 11.0719 88.1899 10.3632 88.7679 10.2911L95.2928 9.47738C96.3447 9.34621 97.2499 8.67121 97.6758 7.7005L100.364 1.57261C100.607 1.01876 101.393 1.01876 101.636 1.57261L104.324 7.7005C104.75 8.67121 105.655 9.34621 106.707 9.47738L113.232 10.2911C113.81 10.3632 114.048 11.0719 113.63 11.4779L108.683 16.2883C107.959 16.9921 107.636 18.012 107.824 19.004L109.118 25.8513C109.228 26.4374 108.597 26.8811 108.083 26.5785L102.526 23.3078Z" stroke="#0D0D0D" stroke-opacity="0.18" stroke-width="2"/>
</g>
<g clip-path="url(#clip4_0_504)">
<path d="M130.939 24.3051C130.36 23.964 129.64 23.964 129.061 24.3052L123.504 27.5759C122.133 28.3827 120.45 27.1995 120.745 25.6365L122.039 18.7892C122.154 18.1787 121.956 17.5511 121.51 17.118L116.563 12.3077C115.45 11.225 116.083 9.33499 117.625 9.14279L124.15 8.32907C124.797 8.24836 125.354 7.83297 125.616 7.23561L128.304 1.1077C128.952 -0.369234 131.048 -0.369235 131.696 1.1077L134.384 7.23561C134.646 7.83297 135.203 8.24836 135.85 8.32907L142.375 9.14279C143.917 9.33499 144.551 11.225 143.437 12.3077L138.49 17.118C138.044 17.5511 137.846 18.1787 137.961 18.7892L139.255 25.6365C139.55 27.1995 137.867 28.3827 136.496 27.5759L130.939 24.3051Z" fill="#FB923C"/>
<path d="M131.526 23.3079C130.584 22.7535 129.416 22.7535 128.474 23.3079L122.917 26.5786C122.403 26.8811 121.772 26.4375 121.883 25.8513L123.176 19.004C123.364 18.0121 123.041 16.9921 122.317 16.2883L117.37 11.478C116.952 11.0719 117.19 10.3632 117.768 10.2911L124.293 9.47741C125.345 9.34624 126.25 8.67123 126.676 7.70052L129.364 1.57261C129.607 1.01876 130.393 1.01877 130.636 1.57261L133.324 7.70052C133.75 8.67123 134.655 9.34624 135.707 9.47741L142.232 10.2911C142.81 10.3632 143.048 11.0719 142.63 11.478L137.683 16.2883C136.959 16.9921 136.636 18.0121 136.824 19.004L138.118 25.8513C138.228 26.4374 137.597 26.8811 137.083 26.5786L131.526 23.3079Z" stroke="#0D0D0D" stroke-opacity="0.18" stroke-width="2"/>
</g>
<defs>
<clipPath id="clip0_0_504">
<rect width="28" height="28" rx="1.6" fill="white"/>
</clipPath>
<clipPath id="clip1_0_504">
<rect x="29" width="28" height="28" rx="1.6" fill="white"/>
</clipPath>
<clipPath id="clip2_0_504">
<rect x="58" width="28" height="28" rx="1.6" fill="white"/>
</clipPath>
<clipPath id="clip3_0_504">
<rect x="87" width="28" height="28" rx="1.6" fill="white"/>
</clipPath>
<clipPath id="clip4_0_504">
<rect x="116" width="28" height="28" rx="1.6" fill="white"/>
</clipPath>
</defs>
</svg>
