<svg width="44" height="33" viewBox="0 0 44 33" fill="none" xmlns="http://www.w3.org/2000/svg">
<path d="M34.4844 16.7545C35.2602 12.3014 33.3799 7.61347 29.2823 4.92455C25.1847 2.23562 20.0147 2.29718 16.0654 4.66703C9.00699 1.37989 3.33219 0.360612 1.84675 2.50584C0.000216007 5.17173 5.23425 11.8452 13.8973 18.3105C13.9109 18.3203 13.9239 18.3301 13.9374 18.34C14.2237 18.5534 14.5142 18.7662 14.8078 18.9792C14.8478 19.0082 14.8879 19.0379 14.9285 19.0675C15.1921 19.2574 15.4594 19.4472 15.7289 19.6366C15.8003 19.6868 15.8703 19.7376 15.9422 19.7879C16.1972 19.966 16.4559 20.1432 16.7156 20.3203C16.8011 20.3786 16.8845 20.4373 16.9706 20.4956C17.3147 20.7291 17.6633 20.9613 18.0157 21.1925C18.3691 21.4241 18.722 21.6521 19.0739 21.8758C19.1434 21.92 19.2119 21.9618 19.281 22.0055C19.5668 22.1859 19.8521 22.365 20.137 22.5402C20.1938 22.575 20.2499 22.6089 20.3069 22.6432C20.6052 22.826 20.903 23.006 21.1999 23.1826C21.2376 23.2047 21.2748 23.2263 21.3125 23.2485C21.6296 23.4364 21.9463 23.6216 22.2615 23.8029C22.2765 23.8114 22.2914 23.8193 22.3059 23.8278C31.7114 29.2208 40.0294 31.4402 41.8759 28.7744C43.3613 26.6291 40.262 21.8908 34.4844 16.7545ZM8.42188 6.0411C8.99637 5.2112 10.9945 5.42831 13.7747 6.44758C13.2615 6.95745 12.7859 7.51667 12.3612 8.13039C11.7587 9.0007 11.2948 9.92082 10.9564 10.8673C8.84478 8.67222 7.83389 6.89025 8.42188 6.0411ZM36.0422 24.1676C35.4543 25.0168 33.378 24.772 30.4964 23.6906C31.2708 23.0304 31.9732 22.2663 32.5756 21.396C33.0004 20.7827 33.3548 20.144 33.6478 19.489C35.6609 21.6159 36.6173 23.3377 36.0422 24.1676Z" fill="#2463EB"/>
<path d="M10.4028 16.8015C10.8783 19.8974 12.6853 22.7999 15.6533 24.686C18.6212 26.5725 22.1526 27.0631 25.375 26.3176C22.882 25.0983 20.2573 23.6328 17.6094 21.9497C14.962 20.2674 12.5366 18.5229 10.4028 16.8015Z" fill="#2463EB"/>
</svg>
